<?xml version="1.0"?>
<svg xmlns="http://www.w3.org/2000/svg" version="1.2" baseProfile="tiny" width="800" height="1255" viewBox="0 0 800 1255" stroke-linecap="round" stroke-linejoin="round">
<g id="COUNTY_MOI_1090820">
<path d="M 441 33.44 441.29 33.63 440.54 34.57 439.1 35.05 439.95 33.72 441 33.44 Z M 437.85 32.54 438.09 32.85 436.83 33.68 436.3 32.67 437.85 32.54 Z M 435.69 17.43 436.57 17.68 436.23 18.46 437.09 18.66 437.16 19.07 437.63 18.7 437.46 18.16 439.46 18.11 438.69 19.34 438.27 19.12 437.64 19.93 437.05 19.74 436.27 20.36 435.05 19.77 435.74 18.78 435.34 18.65 435.86 18.06 435.69 17.43 Z M 441.9 12.51 442.68 12.82 442.47 13.64 443.39 13.32 443.09 14.36 442.44 13.7 441.42 14.36 441.17 14.03 440.29 14.3 439.94 15.54 440.3 16.02 439.56 15.96 439.92 14.52 439.63 13.83 440.87 13.53 441.9 12.51 Z M 442.96 11.17 443.36 11.26 442.77 11.43 442.96 11.17 Z M 441.37 9.08 441.43 10.04 440.72 10.28 440.74 9.36 441.37 9.08 Z M 479.71 1.17 479.86 2.09 480.68 2.14 481.28 1.53 481.2 1.98 481.82 1.96 482.19 2.56 481.41 2.29 480.8 3.21 480.22 2.99 480.07 3.3 480.16 2.27 479.56 2.38 479.5 1.48 478.91 2.09 479.27 1.14 479.71 1.17 Z"/>
<path d="M 595.52 121.52 595.78 122.22 594.61 122.27 593.53 121.47 594.24 121.54 594.72 120.98 595.52 121.52 Z M 596.02 110.71 592.85 111.85 591.22 114.09 590 114.32 589.68 115.81 587.04 117.98 585.15 121.72 584.47 127.78 585.05 130.28 586.12 131.62 586.2 136 587.62 139.38 589.76 140.7 588.77 140.95 589.23 141.38 588.68 141.93 589.27 142.27 588.46 142.68 588.7 146.07 586.35 146.88 586.06 147.6 586.13 148.61 587 148.87 587.01 149.72 587.89 150.04 586.83 150.15 584.68 151.45 584.32 152.68 583.17 153.65 582.33 155.69 582.01 158.48 580.81 161.22 581 162.96 579.85 163.05 578.7 162.37 574.3 161.53 574.07 160.97 573.25 161.21 572.32 160.02 571.56 160.07 571.33 159.47 571.19 160.28 569.8 158.64 568.97 159.21 569.48 160.28 570.16 160.43 569.94 161.44 568.88 160.6 568.75 161.52 567.04 161.68 567.83 163.42 567.16 162.88 564.75 162.66 563.07 161.2 561.29 160.79 559.4 161.09 555.8 159.1 555.48 158.3 555.06 158.44 554.39 157.64 551.8 157.92 550.31 158.91 549.67 158.83 548.98 157.19 548.18 156.86 546.96 157.15 546 156.38 546.12 153.75 545.28 153.09 545.54 152.48 546.22 151.4 547.25 149.9 548.1 149.63 548.43 149.55 549.96 147.74 550.16 147.75 550.59 147.4 550.95 146.79 551.11 146.61 551.13 146.6 551.86 146.21 551.31 144.16 551.69 143.72 551.83 143.55 552.69 142.77 552.47 142.2 552.47 142.19 552.25 141.89 552.22 141.84 551.97 141.33 552.73 140.4 553.89 140.23 556.24 135.11 557.99 134.91 559 134.95 560.47 134.08 562.41 133.77 562.93 132.42 565.06 131.77 565.41 132.07 565.68 131.11 566.39 131.28 567.18 130.69 566.72 129.34 567.07 129.08 566.51 128.54 567.19 127.21 566.76 125.99 569.37 125.42 569.4 124.35 570.9 124.31 571.08 123.94 572.13 124.19 572.78 123.63 574.29 123.77 574.23 123.09 574.92 122.33 577.58 120.71 578.78 120.9 581.11 119.94 581.87 119.23 581.59 118.03 582.4 117.22 585.84 116.59 587.25 115.2 586.08 113.72 586.69 112.49 589.96 112.27 591.07 111.39 594.34 110.31 595.63 110.3 596.02 110.71 Z M 719.97 52.59 720.4 52.98 719.56 52.86 719.97 52.59 Z M 719.28 51.92 719.36 52.64 718.99 52.12 719.28 51.92 Z M 714.22 50.56 715.57 51.31 712.87 51.82 712.94 51.11 714.22 50.56 Z M 730.32 36.7 730.81 37.22 730.25 37.47 729.82 37.11 730.32 36.7 Z"/>
<path d="M 477.91 171.42 481.65 172.68 483.3 175.9 483.15 176.7 484.86 178.52 490.11 179.61 490.46 181.42 491.12 182.25 491.04 185.21 492.62 185.61 492.76 184.97 495.28 186.53 494.61 186.85 494.81 187.17 492.11 187.05 492.01 188.06 493.05 188.81 492.8 190.49 492.01 191.33 491.24 191.04 491.78 191.28 491.29 191.41 492.08 192.67 491.31 193.02 492.06 193.57 491.43 194.61 491.87 195.57 490.69 197.93 491.31 198.79 490.34 200.12 491.17 200 491.08 200.42 491.76 200.61 490.98 200.97 492.03 200.72 492.26 201.32 491.78 201.26 493.11 202.3 495.09 201.77 495.7 203.02 492.29 204.37 485.31 203.19 481.99 203.25 477.56 201.93 476.07 200.92 466.29 201.69 462.14 200.6 459.42 198.1 460.6 196.61 462.15 195.91 462.61 193.91 463.24 193.06 464 192.83 464.31 191.19 466.2 189.8 466.94 187.69 468.42 186.4 468.77 182.96 470.61 181.31 472.24 180.77 472.41 180.04 471.88 180.25 473.23 178.44 474.91 174.04 475.41 173.29 476.92 172.85 477.91 171.42 Z"/>
<path d="M 547.27 170.14 547.77 172 545.91 172.29 544.46 173.52 542.86 173.73 542.99 175.29 542.36 175.28 542.7 175.72 542.45 177 546.13 178.68 545.39 180.2 545.71 180.99 543.89 182.77 542.59 183.39 542.78 184.54 540.78 188.25 541.1 189.51 541.83 189.57 542.18 190.32 541.69 191.66 542.03 194.68 540.86 195.25 541.28 195.58 541.18 197.58 540.24 197.95 539.16 200.12 539.14 201.57 538.12 203.1 538.46 204.22 536.44 205.44 536.59 206.2 538.62 207.15 538.4 208.74 539.17 209.22 539.3 211.23 538.61 212.9 538.88 214.04 537.97 215.89 537.93 217.12 536.59 219.25 535.62 218.88 534.49 219.71 534.36 220.29 532.43 219.96 532.33 221.03 532.98 221.45 532.73 222.09 531.86 222.5 532.25 224.64 531.01 225.58 529.64 225.06 528.05 225.06 527.32 225.66 525.79 225.31 525.29 226.79 523.47 228.78 525 229.86 524.48 230.6 521.62 231.81 521.24 231.05 521.67 230.54 521.01 229.67 517.86 228.97 517.11 229.14 516.32 229.33 513.4 228.61 511.56 228.67 511.1 229.29 509.73 228.82 507.6 228.9 506.9 228.06 506.37 225.07 505.46 223.94 506.78 220 506.21 219 504.38 219.15 501.15 217.77 499.37 218.08 499.36 217.5 498.39 216.59 497.76 217.43 496.28 217.34 495.68 218.07 494.54 218.2 493.16 217.67 493.28 216.62 492.66 216.51 491.9 217.38 491.54 217.2 491.41 216.18 492.91 212.45 492.7 210.85 492.18 210.28 492.28 208.7 492.62 208.24 493.5 208.36 493.49 206.8 492.29 204.37 495.7 203.02 495.09 201.77 493.11 202.3 491.78 201.26 492.26 201.32 492.03 200.72 490.98 200.97 491.76 200.61 491.08 200.42 491.17 200 490.34 200.12 491.31 198.79 490.69 197.93 491.87 195.57 491.43 194.61 492.06 193.57 491.31 193.02 492.08 192.67 491.29 191.41 491.78 191.28 491.24 191.04 492.01 191.33 492.8 190.49 493.05 188.81 492.01 188.06 492.11 187.05 494.81 187.17 494.61 186.85 495.28 186.53 497.45 187.23 499.44 186.93 500.55 187.74 502.48 186.92 504.22 185.09 505.39 182.53 507.07 182.04 507.15 179.6 508.29 177.89 508.99 177.89 509.37 178.54 510.45 178.49 510.97 179.08 510.88 180.98 511.93 179.98 511.94 178.56 514.16 179.22 516.53 177.63 517.39 178.23 519.58 178.34 521.96 175.21 522.6 175.15 523.04 176.01 523.41 175.25 524.15 175.11 524.55 175.52 527.07 173.87 528.39 172.32 531.1 172.27 532 170.97 533.03 170.79 533.55 170 534.63 171.04 535.79 170.18 536.72 170.28 537.6 169.7 539.05 170.44 540.35 168.63 541.14 168.39 542.34 169.65 543.37 169.7 543.99 169.11 545.98 169.44 547.27 170.14 Z"/>
<path d="M 448.53 224.87 449.35 225.2 449.69 225.9 448.64 225.77 448.26 226.59 447.65 226.46 447.42 226.73 447.98 226.85 447.38 226.87 447.82 227.23 447.52 227.53 447.3 227.17 446.4 227.36 447.28 227.76 447.07 228.28 446.38 228.4 446.75 228.11 446.3 227.7 446.01 228.57 445.52 228.57 446.21 227.34 445.88 227.13 445.39 228.44 444.92 228.08 444.98 228.51 444.13 228.69 444.05 229.92 443.27 229.89 443.59 229.14 442.88 229.58 443.68 231.74 441.94 229.46 442.21 228.87 448.53 224.87 Z M 449.96 223.5 450.63 224.1 450.25 224.28 450.92 224.44 450 224.45 449.74 225.08 449.31 224.31 449.96 223.5 Z M 452.54 223.1 452.9 223.4 452.16 224.19 452.56 224.38 452.13 224.39 452.05 223.3 452.54 223.1 Z M 452.54 221.81 452.34 222.75 452 222.15 450.46 223.59 450.9 222.42 452.54 221.81 Z M 452.38 221.36 452.14 221.01 452.54 220.58 452.38 221.36 Z M 492.29 204.37 493.49 206.8 493.5 208.36 492.62 208.24 492.28 208.7 492.18 210.28 492.7 210.85 492.91 212.45 491.41 216.18 491.54 217.2 491.9 217.38 492.66 216.51 493.28 216.62 493.16 217.67 494.54 218.2 495.68 218.07 496.28 217.34 497.76 217.43 498.39 216.59 499.36 217.5 499.37 218.08 498.88 218.64 499.51 219.15 499.78 221.24 498.36 221.35 497.65 220.83 496.46 220.77 495.1 221.22 494.6 220.59 493.31 221.1 492.53 220.83 492.98 220.24 492.84 219.46 491.07 219.67 489.93 220.29 488.33 220.05 487.68 220.33 485.71 219.48 484.2 219.34 482.11 217.42 481.61 216.17 477.73 216.87 477.63 216.53 476.96 216.54 475.47 217.52 475.1 216.96 474.72 217.26 474 216.96 473.84 216.25 473.69 216.82 472.39 217.31 471.91 218.15 470.86 218.32 470.28 219.32 468.35 219.5 468.25 220.56 467.77 220.95 466.24 220.91 466.48 221.71 464.9 221.86 464.93 222.8 463.81 223.35 463.46 224.35 462.8 224.13 462.22 223.15 461.22 223.34 461.52 225.56 460.89 226.15 459.63 226.42 457.72 225.73 456.34 225.98 453.59 225.13 453.94 224.26 452.95 221.91 453.38 221.46 453.51 219.14 453.11 219.05 453.13 217.83 452.59 217.7 452.97 216.22 451.98 217.26 451.14 216.24 452 215.35 453.61 211.68 453.68 210.58 454.4 209.9 455.16 207.83 455.42 206.49 454.45 204.49 455.91 203.03 455.52 202.76 457.95 201.06 458.48 200.13 458.19 199.55 458.95 199.31 459.42 198.1 462.14 200.6 466.29 201.69 476.07 200.92 477.56 201.93 481.99 203.25 485.31 203.19 492.29 204.37 Z"/>
<path d="M 583.3 98.73 583.42 99.58 583.21 99.86 582.6 99.5 582.94 100.07 582.62 100.57 580.95 99.97 580.44 100.58 579.11 100.8 579.89 101.51 579.99 103.21 581.12 103.89 580.81 104.44 578.79 105.24 577.55 105.21 576.17 104.06 575.16 104.11 573.66 103.35 573.73 102.5 573.17 102.9 571.73 102.07 570.76 99.39 569.47 98.46 573.45 97.2 575.91 95.64 575.93 95.62 575.96 95.57 575.87 96.46 577.13 96.41 577.87 97.01 579 97.16 580.16 96.55 581.49 96.96 580.89 97.21 581.28 97.53 583.58 97.72 583.3 98.73 Z M 604.81 59.84 605.33 60.06 604.87 60.64 604.31 60.2 604.81 59.84 Z"/>
<path d="M 565.11 93.96 566.11 94.16 566.09 95.55 565.58 96.32 566.58 96.57 566.55 97.46 567.99 99.2 567.1 100.68 569.43 101.87 569.57 102.87 568.64 104.38 569.28 105.04 568.68 105.64 569.33 106.43 571.03 107.19 572.54 107.05 572.29 107.6 569.91 107.38 569.2 108.03 568.1 107.75 567.17 108.24 567.34 111.1 568.94 111.78 567.47 112.45 565.69 112 564.34 112.15 563.65 110.41 563.08 110.66 562.3 109.77 562.03 110.13 562.07 108.75 561 107.82 560.27 107.72 558.98 108.64 558.27 106.54 559.92 105.49 560.01 103.48 558.67 101.78 556.2 100.96 556.33 99.77 556.8 99.66 556.87 99.08 559.75 95.83 561.11 96.14 561.25 95.37 562.77 94.72 564.18 92.94 565.11 93.96 Z"/>
<path d="M 575.96 95.57 575.93 95.62 575.91 95.64 573.45 97.2 569.47 98.46 570.76 99.39 571.73 102.07 573.17 102.9 573.73 102.5 573.66 103.35 575.16 104.11 576.17 104.06 577.55 105.21 578.79 105.24 580.81 104.44 581.12 103.89 579.99 103.21 579.89 101.51 579.11 100.8 580.44 100.58 580.95 99.97 582.62 100.57 582.94 100.07 582.6 99.5 583.21 99.86 583.42 99.58 583.3 98.73 585.11 98.74 584.55 99.32 584.79 99.88 585.28 99.4 586.3 99.3 590.62 100.02 592.89 99.24 592.11 100.48 592.93 100.92 591.98 102.7 592.07 103.39 593.08 103.84 593.33 104.45 593.36 106.58 594.54 107.74 596.95 107.3 597.91 107.74 597.99 108.37 598.5 107.76 599.26 108.46 599.08 109.26 596.02 110.71 595.63 110.3 594.34 110.31 591.07 111.39 589.96 112.27 586.69 112.49 586.08 113.72 587.25 115.2 585.84 116.59 582.4 117.22 581.59 118.03 581.87 119.23 581.11 119.94 578.78 120.9 577.58 120.71 574.92 122.33 574.23 123.09 574.29 123.77 572.78 123.63 572.13 124.19 571.08 123.94 570.9 124.31 569.4 124.35 569.37 125.42 566.76 125.99 567.19 127.21 566.51 128.54 567.07 129.08 566.72 129.34 567.18 130.69 566.39 131.28 565.68 131.11 565.41 132.07 565.06 131.77 562.93 132.42 562.41 133.77 560.47 134.08 559 134.95 557.99 134.91 557.54 133.16 555.66 132.42 554.4 130.5 553.55 128.01 555.61 126.12 555.67 125.75 554.67 125.32 554.59 124.09 551.95 121.63 550.79 121.72 549.66 122.43 548.19 121.59 546.73 121.61 546.82 121.25 548.45 120.87 547.43 119.8 548.16 119.29 547.48 118.78 547.2 117.79 546.54 117.87 546.5 117.25 546.03 117.53 545.49 117.19 545.95 116.49 545.28 115.93 547.02 114.98 545.63 115.02 545.14 114.2 546.38 113.64 546.14 111.58 545.76 111.51 547.24 110.77 549.33 111.19 550.59 110.48 550.49 109.72 551.26 109.9 551.96 109.46 551.04 108.44 552.68 107.91 551.59 107.03 551.81 106.43 551 106.11 551.78 106 551.25 105.54 551.78 105.36 550.51 105.27 550.81 104.45 548.2 104.29 547.54 103.88 548.09 103.65 547.81 103.39 547.07 103.59 547.78 102.95 544.12 101.81 543.77 101.21 543.25 101.35 542.55 100.81 542.6 100.17 543.32 100.07 543.65 99.51 545.48 99.73 547.43 99.34 550.93 97.83 551.07 96.24 551.93 96.96 552.42 96.48 552.16 96.24 552.43 96.48 553.2 95.5 552.06 95.06 552.11 94.53 553.21 94.37 555.85 89.6 557.33 89.35 558.06 88.19 560.26 87.25 560.39 86.54 560.88 87.09 561.78 86.92 562.46 85.89 563.5 86.57 565.62 85.99 568.77 87.62 570.05 89.04 570.09 90.71 570.75 91.33 571.49 91.17 571.29 91.94 572.14 93.1 573.52 93.53 575.39 92.39 574.08 94.51 574.63 95.29 575.96 95.57 Z M 565.11 93.96 564.18 92.94 562.77 94.72 561.25 95.37 561.11 96.14 559.75 95.83 556.87 99.08 556.8 99.66 556.33 99.77 556.2 100.96 558.67 101.78 560.01 103.48 559.92 105.49 558.27 106.54 558.98 108.64 560.27 107.72 561 107.82 562.07 108.75 562.03 110.13 562.3 109.77 563.08 110.66 563.65 110.41 564.34 112.15 565.69 112 567.47 112.45 568.94 111.78 567.34 111.1 567.17 108.24 568.1 107.75 569.2 108.03 569.91 107.38 572.29 107.6 572.54 107.05 571.03 107.19 569.33 106.43 568.68 105.64 569.28 105.04 568.64 104.38 569.57 102.87 569.43 101.87 567.1 100.68 567.99 99.2 566.55 97.46 566.58 96.57 565.58 96.32 566.09 95.55 566.11 94.16 565.11 93.96 Z"/>
<path d="M 555.8 159.1 554.68 160.08 554.45 162.42 553.55 163.51 552.13 163.51 551.46 165.04 551.01 164.96 550.21 165.74 550.56 167.68 548.02 168.55 547.27 170.14 545.98 169.44 543.99 169.11 543.37 169.7 542.34 169.65 541.14 168.39 540.35 168.63 539.05 170.44 537.6 169.7 536.72 170.28 535.79 170.18 534.63 171.04 533.55 170 533.03 170.79 532 170.97 531.1 172.27 528.39 172.32 527.07 173.87 524.55 175.52 524.15 175.11 523.41 175.25 523.04 176.01 522.6 175.15 521.96 175.21 519.58 178.34 517.39 178.23 516.53 177.63 514.16 179.22 511.94 178.56 511.93 179.98 510.88 180.98 510.97 179.08 510.45 178.49 509.37 178.54 508.99 177.89 508.29 177.89 507.15 179.6 507.07 182.04 505.39 182.53 504.22 185.09 502.48 186.92 500.55 187.74 499.44 186.93 497.45 187.23 495.28 186.53 492.76 184.97 492.62 185.61 491.04 185.21 491.12 182.25 490.46 181.42 490.11 179.61 484.86 178.52 483.15 176.7 483.3 175.9 481.65 172.68 477.91 171.42 478.56 170.87 478.28 170.67 478.87 170.85 479.45 170.08 480.56 167.66 480.23 167.5 480.77 166.81 481.16 166.98 482.83 163.14 485.94 160.26 487.02 158.11 490.84 153.18 492.23 154.16 492.73 155.37 494.13 156.17 496.41 158.92 499.33 160.1 501.88 162.12 505.29 162.93 507.41 164.9 508.68 165.06 510.74 164.55 513.54 164.62 514.36 163.85 513.9 161.41 515.39 160.8 517.81 161.54 520.75 161.63 523.1 164.33 524.29 164.47 524.76 163.34 525.92 162.92 526.15 162.37 527.62 162.7 528.92 161.74 529.94 161.76 531.46 159.49 533.6 159.39 534 158.42 535.31 157.77 535.86 156.6 536.88 156.64 537.32 157.94 538.57 157.6 538.79 156.54 539.49 155.89 539.49 154.8 540.6 154.36 540.69 153.36 540.84 154.09 542.09 154.04 542.59 153.96 543.38 153.89 543.42 153.83 544.35 153.78 545.28 153.09 546.12 153.75 546 156.38 546.96 157.15 548.18 156.86 548.98 157.19 549.67 158.83 550.31 158.91 551.8 157.92 554.39 157.64 555.06 158.44 555.48 158.3 555.8 159.1 Z"/>
<path d="M 493.31 248.31 493.53 248.85 491.99 250.99 492.35 251.56 489.22 254.6 487.13 258.78 485.57 260.49 483.66 261.51 481.6 263.64 480.06 264.54 479.73 265.67 478.22 265.6 478.26 266.6 477.76 266.61 477.63 267.62 476.82 267.65 474.75 272.44 474.16 272.74 473.37 271.95 472.05 272.05 469.72 274.68 468.18 274.54 467.6 273.67 467.2 274.1 464.45 273.33 463.93 273.36 464.05 273.99 462.43 273.56 462.07 274.15 460.41 273.27 460.16 272.38 459.25 272.95 457.21 272.04 455.86 272.79 455.64 269.81 454.92 268.62 454.34 268.64 454.66 267.98 453.22 266.19 449.55 263.62 446.72 262.51 445.23 260.55 444.29 260.56 445.15 257.39 446.49 256.04 446.91 253.09 448.45 249.52 448.49 247.29 449.39 245.56 449.58 242.72 450.8 241.69 450.87 239.91 451.42 239.26 453.69 240.76 453.89 241.37 455.35 241.86 456.16 243.05 456.97 243.17 456.92 242.31 458.8 243.05 459.6 242.54 460.77 240.32 462.24 239.97 463.08 239.22 463.11 238.9 462.58 238.92 463 238.29 463.91 238.67 464.58 238.47 464.55 237.14 465.09 236.51 466.51 236.5 466.81 235.48 467.5 235.86 468.31 235.67 469.49 234.48 472.25 234.26 474.12 233.53 475.05 234.31 476.61 233.5 479.22 234.73 479.7 235.55 480.91 235.02 481.23 235.57 480.09 236.18 480.05 236.96 480.42 236.69 481.68 237.01 482.28 238 481.68 238.13 481.7 238.9 483.94 239.55 484.44 240.22 483.07 241.48 483.36 242.77 482.9 244.61 483.83 245.92 482.8 247.16 483.32 247.76 484.55 248.05 485.61 248.86 486.41 248.59 487.43 249.07 488.54 247.11 488.91 247.96 489.9 248.46 491.35 247.92 493.31 248.31 Z"/>
<path d="M 542.6 100.17 542.55 100.81 543.25 101.35 543.77 101.21 544.12 101.81 547.78 102.95 547.07 103.59 547.81 103.39 548.09 103.65 547.54 103.88 548.2 104.29 550.81 104.45 550.51 105.27 551.78 105.36 551.25 105.54 551.78 106 551 106.11 551.81 106.43 551.59 107.03 552.68 107.91 551.04 108.44 551.96 109.46 551.26 109.9 550.49 109.72 550.59 110.48 549.33 111.19 547.24 110.77 545.76 111.51 546.14 111.58 546.38 113.64 545.14 114.2 545.63 115.02 547.02 114.98 545.28 115.93 545.95 116.49 545.49 117.19 546.03 117.53 546.5 117.25 546.54 117.87 547.2 117.79 547.48 118.78 548.16 119.29 547.43 119.8 548.45 120.87 546.82 121.25 546.73 121.61 548.19 121.59 549.66 122.43 550.79 121.72 551.95 121.63 554.59 124.09 554.67 125.32 555.67 125.75 555.61 126.12 553.55 128.01 554.4 130.5 555.66 132.42 557.54 133.16 557.99 134.91 556.24 135.11 553.89 140.23 552.73 140.4 551.97 141.33 551.68 141.45 550.73 141.74 549.01 140.58 548.5 139.38 548.85 138.88 548.87 138.83 549.02 138.34 548.66 138.04 548.47 138.06 548 137.26 548 135.45 546.97 135.48 546.72 134.16 545.3 133.01 544.13 133.39 544.13 132.45 544.15 132.24 544.16 132.2 544.5 131.28 543.79 130.44 544.02 129.52 544.25 128.39 542.93 127.48 541.66 126.93 541.6 126.73 540.77 126.45 540.84 125.88 540.67 125.57 539.81 125.29 539.48 124.35 538.66 124.73 537.74 124.9 537.61 124.11 536.83 124.29 536.73 124.45 536.36 124.3 536.34 123.68 535.81 123.65 534.02 122.87 534.19 122.61 533.95 122.39 533.92 122.37 532.97 122.11 532.16 121.56 532.56 121.14 532.88 120.5 532.97 120.27 532.7 119.26 532.68 119.25 532.66 119.23 532.78 118.99 532.7 118.88 532.06 118.68 531.37 118.6 531.04 118.91 530.8 118.79 530.76 118.79 529.59 118.63 529.37 118.58 529.21 118.49 529.07 118.02 529.05 117.63 527.47 117.61 527.19 117.46 527.18 117.45 526.98 117.32 524.97 116.79 525.16 115.75 524.99 114.33 523.79 113.76 523.7 113.78 523.6 113.82 523.46 113.63 523.36 113.59 522.59 113.81 522.18 113.97 521.76 113.94 521.51 113.88 520.98 113.59 520.25 114.03 519.69 114.43 519.49 114.2 519.02 114.08 521.2 111.34 521.16 110.15 522 108.74 524.82 105.77 537.08 100.73 539.18 100.34 539.19 99.75 539.5 100.11 540.76 99.71 542.6 100.17 Z"/>
<path d="M 521.21 137.24 521.24 137.25 521.62 137.49 522.42 137.46 522.73 138.11 523.77 138.56 524.27 139.2 524.45 139.3 525.36 139.07 525.64 139.35 526.29 139.72 526.3 139.74 526.38 140.02 526.32 140.31 526.85 140.89 526.89 141.51 526.45 142.09 526.14 142.77 526.11 142.87 525.77 143.63 525.39 143.97 525.03 143.76 525.18 144.08 526.17 144.63 526.73 145.3 526.52 145.85 526.54 146.27 525.67 146.74 526.08 148.37 526.05 148.56 527.37 148.59 528.12 148.78 529.93 147.83 531.15 147.99 531.78 147.58 532.11 147.96 533.73 148.23 537.32 147.29 537.92 148 537.73 148.77 537.85 148.89 538.69 149.49 538.79 149.49 539.56 150.78 540.98 152.01 540.69 153.15 540.69 153.36 540.6 154.36 539.49 154.8 539.49 155.89 538.79 156.54 538.57 157.6 537.32 157.94 536.88 156.64 535.86 156.6 535.31 157.77 534 158.42 533.6 159.39 531.46 159.49 529.94 161.76 528.92 161.74 527.62 162.7 526.15 162.37 525.92 162.92 524.76 163.34 524.29 164.47 523.1 164.33 520.75 161.63 517.81 161.54 515.39 160.8 513.9 161.41 514.36 163.85 513.54 164.62 510.74 164.55 508.68 165.06 507.41 164.9 505.29 162.93 501.88 162.12 499.33 160.1 496.41 158.92 494.13 156.17 492.73 155.37 492.23 154.16 490.84 153.18 494.25 149.79 498.19 140.61 501.05 138.54 501.47 137.43 503.11 135.79 506.66 134.94 509.17 132.66 509.58 131.17 510.61 129.86 511.99 130.28 512.02 130.29 512.03 130.3 513.21 129.65 513.62 130.54 513.69 131.51 514.16 131.54 514.98 131.56 515.88 132.28 516.5 131.98 516.76 132.38 517.39 132.13 518.38 131.93 518.32 132.67 518.39 132.98 517.7 133.79 517.64 134.14 518.02 134.07 518.54 134.1 518.64 134.92 519.09 135.19 519.31 135.54 519.57 135.75 520.47 136.39 521.07 136.31 521.28 136.41 521.27 136.48 521.26 136.51 521.15 136.65 521.13 136.97 521.21 137.24 Z"/>
<path d="M 477.2 225.33 477.95 225.53 478.52 226.83 479.23 226.22 479.99 226.34 480.08 227.14 481.4 227.54 482.04 228.88 480.93 230.44 478.86 229.76 477.59 231.1 476.58 231.48 475.77 229.8 473.03 229.69 473.41 228.44 472.65 226.86 473.5 226.85 474.17 226.24 474.39 226.84 474.79 226.34 476.09 226.05 476.11 225.41 476.66 225.82 476.66 225.32 477.2 225.33 Z"/>
<path d="M 454.07 235.15 453.93 235.43 453.23 233.6 454.07 235.15 Z M 499.37 218.08 501.15 217.77 504.38 219.15 506.21 219 506.78 220 505.46 223.94 506.37 225.07 506.9 228.06 507.6 228.9 509.73 228.82 511.1 229.29 511.56 228.67 513.4 228.61 516.32 229.33 517.11 229.14 515.47 229.59 514.83 230.24 513.87 229.97 512.65 230.35 511.57 231.85 508.68 232.99 506.77 236.79 505.12 236.87 503.47 239.1 501.5 238.94 501.09 240.29 499.48 241.32 499.35 241.96 497.91 241.72 497.49 242.03 496.92 243.62 492.55 242.71 492.13 244.82 493.31 248.31 491.35 247.92 489.9 248.46 488.91 247.96 488.54 247.11 487.43 249.07 486.41 248.59 485.61 248.86 484.55 248.05 483.32 247.76 482.8 247.16 483.83 245.92 482.9 244.61 483.36 242.77 483.07 241.48 484.44 240.22 483.94 239.55 481.7 238.9 481.68 238.13 482.28 238 481.68 237.01 480.42 236.69 480.05 236.96 480.09 236.18 481.23 235.57 480.91 235.02 479.7 235.55 479.22 234.73 476.61 233.5 475.05 234.31 474.12 233.53 472.25 234.26 469.49 234.48 468.31 235.67 467.5 235.86 466.81 235.48 466.51 236.5 465.09 236.51 464.55 237.14 464.58 238.47 463.91 238.67 463 238.29 462.58 238.92 463.11 238.9 463.08 239.22 462.24 239.97 460.77 240.32 459.6 242.54 458.8 243.05 456.92 242.31 456.97 243.17 456.16 243.05 455.35 241.86 453.89 241.37 453.69 240.76 451.42 239.26 452.48 235.77 454.08 235.47 454.54 236.16 454.23 235.51 454.64 235.54 454.2 235.44 454.99 235.12 454.7 234.1 454.05 234.69 453.87 234.1 453.88 232.78 454.39 232.44 453.57 232.34 454.36 230.8 453.99 230.75 454.1 230.29 452.78 230.85 452.61 230.54 453.51 229.9 453.52 228.84 454.37 228 454.33 227.45 455.46 227.37 454.53 227.14 452.15 227.7 451.53 227.11 451.6 225.31 453.59 225.13 456.34 225.98 457.72 225.73 459.63 226.42 460.89 226.15 461.52 225.56 461.22 223.34 462.22 223.15 462.8 224.13 463.46 224.35 463.81 223.35 464.93 222.8 464.9 221.86 466.48 221.71 466.24 220.91 467.77 220.95 468.25 220.56 468.35 219.5 470.28 219.32 470.86 218.32 471.91 218.15 472.39 217.31 473.69 216.82 473.84 216.25 474 216.96 474.72 217.26 475.1 216.96 475.47 217.52 476.96 216.54 477.63 216.53 477.73 216.87 481.61 216.17 482.11 217.42 484.2 219.34 485.71 219.48 487.68 220.33 488.33 220.05 489.93 220.29 491.07 219.67 492.84 219.46 492.98 220.24 492.53 220.83 493.31 221.1 494.6 220.59 495.1 221.22 496.46 220.77 497.65 220.83 498.36 221.35 499.78 221.24 499.51 219.15 498.88 218.64 499.37 218.08 Z M 477.2 225.33 476.66 225.32 476.66 225.82 476.11 225.41 476.09 226.05 474.79 226.34 474.39 226.84 474.17 226.24 473.5 226.85 472.65 226.86 473.41 228.44 473.03 229.69 475.77 229.8 476.58 231.48 477.59 231.1 478.86 229.76 480.93 230.44 482.04 228.88 481.4 227.54 480.08 227.14 479.99 226.34 479.23 226.22 478.52 226.83 477.95 225.53 477.2 225.33 Z"/>
<path d="M 298.24 158.01 297.53 157.72 298.46 157.79 298.24 158.01 Z M 298.41 156.73 299.21 157.4 298.35 157.32 298.41 156.73 Z M 305.16 151.92 306.75 152.73 306.27 154.57 305.61 154.39 304.89 155.27 303.93 155.29 303.37 155.94 302.4 155.57 303.48 152.59 305.16 151.92 Z M 307.42 152.12 306.72 152.23 306.98 151.79 307.42 152.12 Z M 317.87 145.99 319.62 146.55 319.78 147.38 320.91 147.65 321.58 149.52 322.38 149.79 322 151.04 323.1 152.4 322.51 153.22 321.76 153.35 322.19 153.91 321.72 154.48 321.47 154.3 321.29 155.05 319.04 155.8 319.57 155.04 319.14 154.46 317.71 154.18 317.85 153.87 317.19 153.6 315.95 153.57 313.1 154.72 311.32 157.35 308.85 156.67 307.44 155.31 308.45 154.86 309.4 153.32 308.09 150.48 308.6 149.3 310.17 148.86 312 150.38 314.1 150.72 315.87 149.01 315.74 147.87 317.05 146.77 316.81 146.31 317.87 145.99 Z M 401.03 110.48 401.41 110.49 401.2 111 400.4 110.95 401.03 110.48 Z M 399.8 110.21 399.69 110.54 398.96 110.36 398.63 109.49 399.8 110.21 Z"/>
<path d="M 185.27 445.09 186.7 446.04 184.78 445.54 185.77 445.86 186.06 445.58 184.82 445.34 185.27 445.09 Z M 521.62 231.81 521.53 232.16 522.73 232.83 522.38 233.44 522.65 234.28 520.68 234.99 521.03 235.78 519.49 236.88 519.38 237.44 521.22 238.81 522 238.46 522.54 239.46 524.25 240.42 524.05 241.73 522.94 242.11 522.65 242.63 519.38 243.94 518.29 243.8 515.57 246.71 513.83 247.27 513.05 250.26 513.45 251.66 512.5 252.05 512.21 253.3 510.76 254.04 511.49 254.59 511.78 257.24 511.48 258.91 510.2 261.21 511.02 262.14 511.04 263.1 509.6 263.47 509.53 265.25 508.78 265.48 508.62 266.28 506.41 268.85 506.49 270.94 507.38 272.74 507.02 273.39 507.95 275.12 509.45 275.4 509.86 275.85 509.41 276.56 510.22 277.01 509.83 278.16 508.94 277.02 508.47 277.46 507.71 276.51 506.73 276.33 504.86 277.53 504.26 277.46 504.21 278.31 503.11 278.77 501.26 276.47 498.91 275.2 497.31 275.22 496.22 276.45 494.77 277.12 493.86 276.83 493.67 275.29 492.93 275.5 492.65 274.86 489.55 275.82 485.47 279.3 483.7 278.95 482.09 279.3 480.74 278.61 479.28 278.65 477.69 283.91 477.61 289.03 476.3 292.38 476.12 295.8 477.16 298.2 476.77 300.29 475.27 303.56 475.39 307.45 473.63 307.04 470.25 304.95 468.3 303.33 468.27 302.75 467.64 303.16 467.97 302.36 466.63 303.84 464.58 301.59 465.95 302.44 466.25 302.23 466.97 303.1 467.37 302.83 466.24 301.46 465.54 301.28 465.88 300.48 462.76 297.07 462.98 296.35 462.22 295.79 462.79 295.1 461.73 293.15 461.98 292.09 462.88 291.29 462.75 290.21 462.37 290.19 462.65 289.24 459.04 281.2 457.67 281.12 457.06 280.46 458.4 279.76 457.71 278.05 457.03 278.26 457.68 278.04 456.99 276.96 457.27 276.42 455.86 272.79 457.21 272.04 459.25 272.95 460.16 272.38 460.41 273.27 462.07 274.15 462.43 273.56 464.05 273.99 463.93 273.36 464.45 273.33 467.2 274.1 467.6 273.67 468.18 274.54 469.72 274.68 472.05 272.05 473.37 271.95 474.16 272.74 474.75 272.44 476.82 267.65 477.63 267.62 477.76 266.61 478.26 266.6 478.22 265.6 479.73 265.67 480.06 264.54 481.6 263.64 483.66 261.51 485.57 260.49 487.13 258.78 489.22 254.6 492.35 251.56 491.99 250.99 493.53 248.85 493.31 248.31 492.13 244.82 492.55 242.71 496.92 243.62 497.49 242.03 497.91 241.72 499.35 241.96 499.48 241.32 501.09 240.29 501.5 238.94 503.47 239.1 505.12 236.87 506.77 236.79 508.68 232.99 511.57 231.85 512.65 230.35 513.87 229.97 514.83 230.24 515.47 229.59 517.11 229.14 517.86 228.97 521.01 229.67 521.67 230.54 521.24 231.05 521.62 231.81 Z"/>
<path d="M 568.3 348.59 567.65 347.91 568.49 347.64 568.66 348.42 568.3 348.59 Z M 559.92 337.49 561.82 337.89 565 337.64 564.86 338.4 565.51 339.48 564.79 339.62 564.57 340.31 564.82 341.03 567.59 342.57 566.84 343.98 565.05 343.95 564.07 342.47 562.53 342.21 560.9 340.54 560.23 340.49 560.34 338.83 559.5 337.82 559.92 337.49 Z M 558.89 291.12 560.34 291.15 560.24 292.96 559.52 293.59 560.04 294.63 559.18 294.63 558.68 293.84 557.48 293.54 557.62 292.58 556.79 291.58 556.89 291.19 558.89 291.12 Z M 559.25 231.86 557.59 235.63 556.61 241.4 555.44 241.68 554.3 243.33 552.89 247.5 553.32 248.17 551.5 249.83 551.6 251.35 552.33 252.82 551.71 255.31 552.24 256.05 553.65 256.05 551.35 257 550.39 258.41 548.86 258.53 547.67 260.82 546.81 264.3 545.63 265.72 545.74 266.4 543.53 269.44 542.58 269.96 541.51 272.77 539.78 275.15 539.12 275.39 538.69 276.48 536.79 276.59 535.26 277.85 535 278.95 535.93 280.37 536.16 281.85 534.62 282.87 534.22 284.75 530.11 288.08 526.8 289.49 522.44 292.81 521.41 295.65 521.15 298.04 519.3 299.58 518.65 300.74 516.24 308.38 512.23 317.86 511.95 321.98 512.31 324.84 509.98 326.14 509.37 325.28 507.49 324.93 505.99 323.53 504.62 323.95 504.62 322.51 505.31 322.44 505.23 321.92 504.25 321.76 502.97 320.45 503.07 319.99 504.51 319.31 504.19 317.86 503.59 317.07 502.22 316.93 501.88 316.02 500.36 315.39 501.38 313.73 501.14 312.43 502.7 312.28 503.97 311.44 502.93 308.92 500.94 308.18 500.93 306.63 501.99 305.36 500.01 300.8 500.21 299.63 500.77 299.34 500.54 297.99 501.23 297.11 501.22 295.92 503.67 292.37 504.12 290.98 503.77 289.89 505.49 290.27 506.34 289.7 507.66 289.58 508.58 288.03 511.31 288.02 512.22 286.33 511.98 284.37 512.9 283.44 512.86 281.54 511.92 280.62 510.15 280.21 509.6 279.44 509.83 278.16 510.22 277.01 509.41 276.56 509.86 275.85 509.45 275.4 507.95 275.12 507.02 273.39 507.38 272.74 506.49 270.94 506.41 268.85 508.62 266.28 508.78 265.48 509.53 265.25 509.6 263.47 511.04 263.1 511.02 262.14 510.2 261.21 511.48 258.91 511.78 257.24 511.49 254.59 510.76 254.04 512.21 253.3 512.5 252.05 513.45 251.66 513.05 250.26 513.83 247.27 515.57 246.71 518.29 243.8 519.38 243.94 522.65 242.63 523.47 242.35 524.84 243.16 526.63 247.67 527.69 247.58 528.92 248.39 530.55 248.41 531.33 250.08 531.96 250.31 534.17 249.43 535.26 249.94 537.06 253.76 537.01 254.59 538.5 254.98 539.09 255.81 539.93 255.59 540.59 256.01 541.34 256.95 541.11 257.75 541.74 258.22 543.23 257.32 545.13 257.29 545.62 256.71 545.5 255.09 546.03 253.97 545.36 252.72 545.73 251.89 546.64 251.96 547.54 248.89 548.38 248.37 548.02 247.78 548.67 246.76 548.55 246.11 550 244.78 550 242.33 550.97 240.79 551.72 240.59 552.49 238.81 553.49 238.05 553.52 237.71 552.07 237.13 551.73 235.62 553.31 232.97 554.91 231.95 555.34 231.17 557.46 231.4 558.18 232.22 559.25 231.86 Z"/>
<path d="M 581 162.96 580.64 163.95 579.13 165.43 578.59 167.3 577.42 168.41 576.42 168.72 575.68 169.98 573.16 171.39 572.33 172.44 571.95 174.18 572.37 177.11 568.87 180.62 568.88 183.54 571.13 186.93 569.59 190.02 569.11 189.36 567.99 190.77 568.31 192.85 567.24 198.82 565.25 203.25 565.22 206.68 563.46 209.81 563.73 211.24 562.76 214.19 562.95 214.76 562 216.86 561.61 220.78 560.44 222.73 559.82 225.18 560.16 227.44 560.64 227.76 559.25 231.86 558.18 232.22 557.46 231.4 555.34 231.17 554.91 231.95 553.31 232.97 551.73 235.62 552.07 237.13 553.52 237.71 553.49 238.05 552.49 238.81 551.72 240.59 550.97 240.79 550 242.33 550 244.78 548.55 246.11 548.67 246.76 548.02 247.78 548.38 248.37 547.54 248.89 546.64 251.96 545.73 251.89 545.36 252.72 546.03 253.97 545.5 255.09 545.62 256.71 545.13 257.29 543.23 257.32 541.74 258.22 541.11 257.75 541.34 256.95 540.59 256.01 539.93 255.59 539.09 255.81 538.5 254.98 537.01 254.59 537.06 253.76 535.26 249.94 534.17 249.43 531.96 250.31 531.33 250.08 530.55 248.41 528.92 248.39 527.69 247.58 526.63 247.67 524.84 243.16 523.47 242.35 522.65 242.63 522.94 242.11 524.05 241.73 524.25 240.42 522.54 239.46 522 238.46 521.22 238.81 519.38 237.44 519.49 236.88 521.03 235.78 520.68 234.99 522.65 234.28 522.38 233.44 522.73 232.83 521.53 232.16 521.62 231.81 524.48 230.6 525 229.86 523.47 228.78 525.29 226.79 525.79 225.31 527.32 225.66 528.05 225.06 529.64 225.06 531.01 225.58 532.25 224.64 531.86 222.5 532.73 222.09 532.98 221.45 532.33 221.03 532.43 219.96 534.36 220.29 534.49 219.71 535.62 218.88 536.59 219.25 537.93 217.12 537.97 215.89 538.88 214.04 538.61 212.9 539.3 211.23 539.17 209.22 538.4 208.74 538.62 207.15 536.59 206.2 536.44 205.44 538.46 204.22 538.12 203.1 539.14 201.57 539.16 200.12 540.24 197.95 541.18 197.58 541.28 195.58 540.86 195.25 542.03 194.68 541.69 191.66 542.18 190.32 541.83 189.57 541.1 189.51 540.78 188.25 542.78 184.54 542.59 183.39 543.89 182.77 545.71 180.99 545.39 180.2 546.13 178.68 542.45 177 542.7 175.72 542.36 175.28 542.99 175.29 542.86 173.73 544.46 173.52 545.91 172.29 547.77 172 547.27 170.14 548.02 168.55 550.56 167.68 550.21 165.74 551.01 164.96 551.46 165.04 552.13 163.51 553.55 163.51 554.45 162.42 554.68 160.08 555.8 159.1 559.4 161.09 561.29 160.79 563.07 161.2 564.75 162.66 567.16 162.88 567.83 163.42 567.04 161.68 568.75 161.52 568.88 160.6 569.94 161.44 570.16 160.43 569.48 160.28 568.97 159.21 569.8 158.64 571.19 160.28 571.33 159.47 571.56 160.07 572.32 160.02 573.25 161.21 574.07 160.97 574.3 161.53 578.7 162.37 579.85 163.05 581 162.96 Z"/>
<path d="M 398.38 248.56 398.99 248.66 398.6 250.18 397.57 250.48 397.57 251.28 396.64 250.75 396.94 250.54 396.47 250.72 396.85 249.97 395.98 248.95 398.38 248.56 Z M 412.15 246.03 412.56 246.09 412.57 246.74 411.56 246.4 412.15 246.03 Z M 416.94 245.22 417.15 245.52 416.45 246.79 416 245.64 416.94 245.22 Z M 404.61 245.17 404.35 245.94 403.83 245.85 404.61 245.17 Z M 403.59 244.55 403.93 245.01 403.42 244.87 403.59 244.55 Z M 405.96 236.51 406.49 237.32 405.6 237.17 405.04 237.92 404.67 237.72 404.59 237.18 405.96 236.51 Z M 402.57 234.8 402.99 235.38 403.65 235.19 403.71 236.4 404.11 236.39 403.73 236.83 404.36 236.65 404.34 237.1 403.66 237.34 404.08 238.3 401.99 238.02 402.64 237.28 402.41 236.18 402.74 235.56 402.23 234.99 402.57 234.8 Z M 388.95 233.67 389.81 234.2 388.69 234.83 388.95 233.67 Z M 406.28 227.06 405.29 227.8 403.77 227.92 403.87 227.42 404.4 227.81 405.35 227.08 406.28 227.06 Z M 404.66 225.58 404.77 226 404.19 226.02 404.66 225.58 Z M 408.6 217.54 408.16 217.43 408.37 217.17 408.6 217.54 Z M 413.58 214.9 413.54 215.57 413.2 215.27 413.58 214.9 Z M 414.13 214.21 414.44 214.24 413.88 214.38 414.13 214.21 Z M 415.92 213.49 416.18 214.2 415.12 214.49 415.92 213.49 Z M 409.65 212.94 410.17 213.31 410.87 213.16 411.11 213.89 411.65 213.95 411.38 214.28 411.95 214.79 411.75 215.22 410.94 215.17 411.07 215.66 410.68 215.83 411.08 216.3 411.69 216.14 411.07 216.7 411.36 217.3 411.94 217.36 411.92 218.77 413.3 218.35 412.85 218.9 412.78 220.47 413.37 220.25 413.81 219.01 414.12 219.04 413.98 219.92 414.3 219.89 414.86 218.34 414.53 218.4 415.17 218.24 415.21 219.04 416.06 219.28 415.59 219.59 416.21 219.62 416.53 218.85 417.35 220.19 417.39 221.62 418.27 222.03 418.39 222.54 416.98 222.74 416.51 222.21 416.84 222.08 416.3 221.9 416.33 222.34 416.09 221.95 414.33 222.09 413.63 223.1 412.77 223.26 411.32 224.51 411.39 225.02 411.8 225.05 411.32 225.46 411.37 226.14 410.71 225.64 408.76 226.12 408.71 225 407.52 224.92 406.93 223.7 406.21 223.51 406.88 222.53 406.95 223.57 407.51 223.82 407.37 224.49 407.84 224.66 408.19 224.04 408.68 224.25 408.89 225.22 409.53 224.2 410.56 224.68 410.87 224.32 410.5 223.76 411.13 223.6 411.21 222.97 410.27 222.63 408.79 223.21 408.46 222.74 407.93 222.95 407.98 222.24 408.4 222.62 408.98 222.46 408.72 221.81 409.28 221.79 408.87 221.44 408.4 221.9 407.42 221.81 408.33 220.89 407.88 220.1 408.9 220.11 409.58 219.38 409.53 220.51 410.03 220.51 409.75 221 410.42 220.9 410.67 221.36 411.05 220.72 410.69 220.73 410.76 220.28 411.45 220.03 411.13 218.85 411.85 218.5 410.67 217.69 411.31 217.36 411.24 216.97 410.88 217.34 409.98 217.16 410.56 216.15 409.27 214.52 409.4 214.09 408.62 214.06 408.01 214.91 407.32 214.43 406.13 216.41 404.48 216.69 404.87 218.79 404.02 219.54 404.33 221.68 402.76 221.42 402.26 221.85 400.49 221.96 401.6 220.85 402.42 221.29 403.32 220.56 403.23 219.68 402.24 219.38 402.57 218.77 402.93 219.27 403.41 219.14 403.27 218.49 403.76 217.94 403 217.36 404 215.15 404.6 215.16 404.18 214.58 404.95 214.56 404.57 215.45 405.84 215.9 407.28 214.43 406.98 214.41 407.38 213.57 409.65 212.94 Z M 407.14 209.48 407.67 209.54 407.39 210.43 407.14 209.48 Z M 411.85 206.72 412.75 207.69 412.12 208.16 411.77 207.86 412.06 208.18 411.44 208.17 411.09 209.12 410.57 208.05 411.85 206.72 Z M 411.37 205.18 410.71 206.59 410.79 205.72 411.37 205.18 Z"/>
<path d="M 515.38 131.87 514.16 131.54 513.69 131.51 513.62 130.54 513.21 129.65 512.03 130.3 512.02 130.29 511.99 130.28 510.61 129.86 512.43 127.8 511.93 127.01 512 125.58 512.74 123.31 513.84 121.82 513.62 120.8 514.58 120.75 515.77 121.12 516.93 122.35 519.11 122.61 521.08 123.77 522.44 125.11 522.04 125.5 523.05 127.86 522.04 128.43 521.19 127.09 519.89 126.55 519.32 126.84 519.52 127.53 518.07 127.76 517.11 129.31 516.05 129.41 515.38 131.87 Z"/>
<path d="M 523.46 113.63 523.6 113.82 523.7 113.78 523.79 113.76 524.99 114.33 525.16 115.75 524.97 116.79 526.98 117.32 527.18 117.45 527.19 117.46 527.47 117.61 529.05 117.63 529.07 118.02 529.21 118.49 529.37 118.58 529.59 118.63 530.76 118.79 530.8 118.79 531.04 118.91 531.37 118.6 532.06 118.68 532.7 118.88 532.78 118.99 532.66 119.23 532.68 119.25 532.7 119.26 532.97 120.27 532.88 120.5 532.56 121.14 532.16 121.56 532.97 122.11 533.92 122.37 533.95 122.39 534.19 122.61 534.02 122.87 535.81 123.65 536.34 123.68 536.36 124.3 536.73 124.45 536.83 124.29 537.61 124.11 537.74 124.9 538.66 124.73 539.48 124.35 539.81 125.29 540.67 125.57 540.84 125.88 540.77 126.45 541.6 126.73 541.66 126.93 542.93 127.48 544.25 128.39 544.02 129.52 543.79 130.44 544.5 131.28 544.16 132.2 544.15 132.24 544.13 132.45 544.13 133.39 545.3 133.01 546.72 134.16 546.97 135.48 548 135.45 548 137.26 548.47 138.06 548.66 138.04 549.02 138.34 548.87 138.83 548.85 138.88 548.5 139.38 549.01 140.58 550.73 141.74 551.68 141.45 552.22 141.84 552.25 141.89 552.47 142.19 552.47 142.2 552.69 142.77 551.83 143.55 551.69 143.72 551.31 144.16 551.86 146.21 551.13 146.6 551.11 146.61 550.95 146.79 550.59 147.4 550.16 147.75 549.96 147.74 548.43 149.55 548.1 149.63 547.25 149.9 546.22 151.4 545.54 152.48 545.28 153.09 544.35 153.78 543.42 153.83 543.38 153.89 542.59 153.96 542.09 154.04 540.8 154.07 540.69 153.15 540.98 152.01 539.56 150.78 538.79 149.49 538.69 149.49 537.85 148.89 537.73 148.77 537.92 148 537.32 147.29 533.73 148.23 532.11 147.96 531.78 147.58 531.15 147.99 529.93 147.83 528.12 148.78 527.37 148.59 526.05 148.56 526.08 148.37 525.67 146.74 526.54 146.27 526.52 145.85 526.73 145.3 526.17 144.63 525.18 144.08 525.03 143.76 525.39 143.97 525.77 143.63 526.11 142.87 526.14 142.77 526.45 142.09 526.89 141.51 526.85 140.89 526.32 140.31 526.38 140.02 526.3 139.74 526.29 139.72 525.64 139.35 525.36 139.07 524.45 139.3 524.27 139.2 523.77 138.56 522.73 138.11 522.42 137.46 521.62 137.49 521.24 137.25 521.21 137.24 521.13 136.97 521.15 136.65 521.26 136.51 521.27 136.48 521.28 136.41 521.07 136.31 520.47 136.39 519.57 135.75 519.31 135.54 519.09 135.19 518.64 134.92 518.54 134.1 518.02 134.07 517.64 134.14 517.7 133.79 518.39 132.98 518.32 132.67 518.38 131.93 517.39 132.13 516.76 132.38 516.5 131.98 515.91 132.29 515.38 131.87 516.05 129.41 517.11 129.31 518.07 127.76 519.52 127.53 519.32 126.84 519.89 126.55 521.19 127.09 522.04 128.43 523.05 127.86 522.04 125.5 522.44 125.11 521.08 123.77 519.11 122.61 516.93 122.35 515.77 121.12 514.58 120.75 515.94 119.44 518.06 114.98 519.02 114.08 519.49 114.2 519.69 114.43 520.25 114.03 520.98 113.59 521.51 113.88 521.76 113.94 522.18 113.97 522.59 113.81 523.36 113.59 523.46 113.63 Z"/>
<path d="M 471.89 316.27 472.58 316.68 472.54 317.31 470.6 318.81 469.93 318.83 469.85 318.35 470.61 317.52 470.44 317.01 471.89 316.27 Z M 509.83 278.16 509.6 279.44 510.15 280.21 511.92 280.62 512.86 281.54 512.9 283.44 511.98 284.37 512.22 286.33 511.31 288.02 508.58 288.03 507.66 289.58 506.34 289.7 505.49 290.27 503.77 289.89 504.12 290.98 503.67 292.37 501.22 295.92 501.23 297.11 500.54 297.99 500.77 299.34 500.21 299.63 500.01 300.8 501.99 305.36 500.93 306.63 500.94 308.18 502.93 308.92 503.97 311.44 502.7 312.28 501.14 312.43 501.38 313.73 500.36 315.39 501.88 316.02 502.22 316.93 503.59 317.07 504.19 317.86 504.51 319.31 503.07 319.99 502.97 320.45 504.25 321.76 505.23 321.92 505.31 322.44 504.62 322.51 504.62 323.95 505.99 323.53 507.49 324.93 509.37 325.28 509.98 326.14 512.31 324.84 512.34 328.08 511.88 328.9 512.38 332.9 511.56 334.11 512.02 335.54 512.76 335.88 512.14 337.19 512.05 338.81 512.13 340.34 512.7 341.45 510.9 343.29 510.71 344.21 508.43 345.13 508.03 347.36 510.01 351.91 508.78 352.23 508.35 350.82 507.62 350.66 506.52 349.26 503.45 348.54 502.02 347.32 500.75 348.08 500.06 350.43 499.05 350.48 498.45 349.36 497.78 349.28 498.02 345.64 496.47 343.92 495.76 342.12 496.71 340.92 496.77 339.82 497.37 339.62 496.9 337.65 498.27 336.83 498.2 335.92 496.8 333.31 496.95 332.52 495.71 328.71 495.76 327.66 494.76 325.86 493.06 324.38 493.21 323.14 492.42 320.41 489.57 317.5 488 315.22 482.68 311.93 478.06 309.75 476.3 308.17 476.07 307.48 475.39 307.45 475.27 303.56 476.77 300.29 477.16 298.2 476.12 295.8 476.3 292.38 477.61 289.03 477.69 283.91 479.28 278.65 480.74 278.61 482.09 279.3 483.7 278.95 485.47 279.3 489.55 275.82 492.65 274.86 492.93 275.5 493.67 275.29 493.86 276.83 494.77 277.12 496.22 276.45 497.31 275.22 498.91 275.2 501.26 276.47 503.11 278.77 504.21 278.31 504.26 277.46 504.86 277.53 506.73 276.33 507.71 276.51 508.47 277.46 508.94 277.02 509.83 278.16 Z"/>
</g>
</svg>